<svg width="16" height="16" viewBox="0 0 16 16" xmlns="http://www.w3.org/2000/svg"><title>icon-lab-pin</title><g><path style="fill:#000000;fill-rule:evenodd" d="M8.197 4.517c0 .9-.316 1.662-.948 2.295-.64.64-1.4.95-2.3.95s-1.66-.31-2.3-.95c-.64-.63-.95-1.39-.95-2.29 0-.89.31-1.66.95-2.29.63-.63 1.39-.95 2.29-.95s1.66.32 2.29.95c.63.63.95 1.4.95 2.29l.004-.005zm-.006 6.49c0-.89.32-1.65.95-2.29.63-.63 1.4-.95 2.3-.95s1.66.32 2.3.95c.64.64.95 1.4.95 2.29 0 .9-.31 1.67-.95 2.3-.63.63-1.39.95-2.29.95s-1.66-.32-2.29-.95c-.63-.63-.95-1.39-.95-2.29l-.006-.01zm-3.24-8.42c-.53 0-.99.19-1.37.57-.38.38-.57.84-.57 1.38s.19.997.57 1.377c.38.383.84.57 1.38.57s.996-.187 1.376-.57c.38-.38.57-.837.57-1.37 0-.54-.19-.996-.57-1.376-.38-.38-.84-.57-1.375-.57v-.01zm6.49 6.49c-.53 0-.99.19-1.37.57-.38.38-.57.84-.57 1.378 0 .538.19.996.575 1.376.38.38.84.57 1.374.57s.993-.19 1.373-.57c.38-.38.574-.84.574-1.37 0-.53-.19-.99-.572-1.37-.38-.38-.84-.57-1.372-.57v-.01zm-7.78 5.19c-.172 0-.33-.06-.452-.19-.127-.125-.19-.28-.19-.455 0-.17.053-.315.16-.44L12.2 1.566c.15-.18.32-.27.52-.27.18 0 .33.062.46.19.122.127.19.28.19.457 0 .15-.04.278-.13.39L4.127 14.05c-.15.15-.316.22-.495.22l.018-.003z"/></g></svg>