<svg xmlns="http://www.w3.org/2000/svg" width="16" height="16" viewBox="-172.5 843.5 16 16"><title>icon-lab-pin</title><g><path style="fill:#000000;fill-rule:evenodd" d="M-165.367 845.802c-.047.354-.387.61-.736.557-.34-.06-.592-.38-.557-.72.036-.35.384-.62.73-.57.353.04.61.38.563.73zm1.653.74c-.048.353-.388.61-.736.556-.34-.053-.592-.375-.557-.717.036-.34.384-.61.73-.57.353.05.61.38.563.73zm1.37-1.548c-.046.353-.386.61-.734.557-.342-.05-.593-.37-.557-.71.036-.34.383-.61.73-.57.353.05.61.38.562.74zm4.167 10.918c-.138-.22-.286-.44-.416-.633l-.202-.3-.988-1.49c-.753-1.14-1.528-2.31-2.296-3.46-.06-.1-.08-.18-.08-.29.01-.32.01-.8.01-1.43 0-.17.14-.31.31-.31l.41-.01c.23-.01.4-.2.39-.42 0-.22-.18-.39-.41-.39h-.38c-.61 0-1.11.5-1.11 1.11v1.42c0 .27.07.5.22.74.77 1.14 1.55 2.31 2.3 3.45l.99 1.48c.07.1.14.2.21.31.13.19.27.39.4.59.26.41.3 1.21-.22 1.56-.03.02-.07.03-.1.03-.31.004-.63.01-.94.01h-8.76c-.31 0-.63 0-.94-.007-.02 0-.07-.01-.1-.034-.52-.35-.48-1.15-.22-1.56.13-.203.27-.41.4-.605l.21-.307.95-1.43 2.33-3.51c.16-.23.23-.47.22-.74v-1.43c0-.62-.5-1.12-1.11-1.12h-.444c-.22 0-.4.18-.4.4 0 .22.18.4.408.4h.45c.17 0 .31.14.31.31 0 .63 0 1.11.004 1.43 0 .11-.025.19-.09.29l-2.16 3.248-1.12 1.695c-.07.1-.137.195-.2.294-.14.2-.285.41-.42.63-.23.37-.34.87-.3 1.332.05.56.32 1.023.75 1.312.156.11.356.18.536.18l.954.004h8.74c.32 0 .643 0 .97-.005.18 0 .38-.07.53-.17.43-.29.7-.76.75-1.32.04-.46-.07-.96-.3-1.33z"/><path style="fill:#000000;fill-rule:evenodd" d="M-169.446 856.77c-.052.083-.083.26-.055.39l.64.002h8.74c.24 0 .45 0 .64-.002.03-.13 0-.307-.06-.39-.12-.19-.25-.386-.38-.575-.08-.11-.15-.215-.22-.32l-2.28-3.432-.11-.008-.04-.004c-.16-.01-.32-.03-.47-.08-.31-.09-.59-.24-.83-.44-.08-.06-.13-.07-.2-.02-.04.03-.08.07-.12.1-.05.04-.1.09-.15.12-.06.04-.11.08-.18.11-.236.13-.496.19-.82.19-.17 0-.337-.01-.5-.03-.29-.02-.56-.04-.756.01l-2.32 3.51-.21.31-.014.02c-.12.19-.25.38-.37.56z"/></g></svg>